<svg width="28" height="28" viewBox="0 0 28 28" fill="none" xmlns="http://www.w3.org/2000/svg">
<path d="M27.2295 8.323C27.2295 8.11581 27.1472 7.91711 27.0006 7.7706L25.667 6.4369V5.64284C25.667 4.74935 25.1705 3.94607 24.3714 3.54649L23.478 3.09977L23.3914 2.73607C23.1012 1.51769 22.0239 0.666748 20.7714 0.666748C20.2432 0.666748 19.7308 0.820342 19.2898 1.11097L16.83 2.73159C12.9371 5.29623 9.5584 8.49024 6.78199 12.2292H5.09408C2.65298 12.2292 0.666992 14.2152 0.666992 16.6563C0.666992 17.8055 0.908086 18.9186 1.38361 19.9646L3.27116 24.1172V24.9897C3.27116 26.282 4.32257 27.3334 5.61491 27.3334H7.69824C8.1297 27.3334 8.47949 26.9836 8.47949 26.5522C8.47949 26.1207 8.1297 25.7709 7.69824 25.7709H7.43783V23.7907C7.99428 23.2993 8.4698 22.7379 8.85684 22.1251H10.2361C11.2448 22.1251 12.2314 21.9613 13.167 21.6435V25.7709H12.9066C12.4751 25.7709 12.1253 26.1207 12.1253 26.5522C12.1253 26.9836 12.4751 27.3334 12.9066 27.3334H14.8776C15.9129 27.3334 16.8131 26.6685 17.1177 25.6789L18.2068 22.1392L19.417 23.6952V25.7709H19.1566C18.7251 25.7709 18.3753 26.1207 18.3753 26.5522C18.3753 26.9836 18.7251 27.3334 19.1566 27.3334H21.2399C22.5323 27.3334 23.5837 26.282 23.5837 24.9897V18.0669C23.5837 16.0738 23.1935 14.0787 22.448 12.2292H23.3232C25.4771 12.2292 27.2295 10.4769 27.2295 8.323ZM15.6242 25.2194C15.5228 25.5492 15.2227 25.7709 14.8776 25.7709H14.7295V20.9409C15.0047 20.7845 15.2732 20.6134 15.5338 20.4273L16.3962 19.8113L17.0354 20.6331L15.6242 25.2194ZM21.658 10.6667L20.8482 9.45216C20.6089 9.09315 20.1239 8.99618 19.7649 9.23545C19.4058 9.47482 19.3088 9.95987 19.5482 10.3188L20.5614 11.8386C21.5164 13.7647 22.0212 15.9172 22.0212 18.0669V24.9897C22.0212 25.4204 21.6707 25.7709 21.2399 25.7709H20.9795V23.4272C20.9795 23.2535 20.9216 23.0847 20.8149 22.9475L17.2176 18.3224C16.6119 17.0847 16.292 15.7049 16.292 14.3271V14.0522C16.292 13.6207 15.9422 13.2709 15.5107 13.2709C15.0793 13.2709 14.7295 13.6207 14.7295 14.0522V14.3271C14.7295 15.7477 15.0202 17.1697 15.5733 18.4789L14.6256 19.1559C13.3373 20.0762 11.8193 20.5626 10.2361 20.5626H9.61074C9.89314 19.7537 10.042 18.8927 10.042 18.0089V17.1772C10.042 16.7457 9.69225 16.3959 9.26079 16.3959C8.82934 16.3959 8.47954 16.7457 8.47954 17.1772V18.0089C8.47954 19.8897 7.6372 21.6422 6.16861 22.8171C5.98324 22.9654 5.87538 23.1898 5.87538 23.4272V25.7709H5.61496C5.18418 25.7709 4.83371 25.4204 4.83371 24.9897V23.948C4.83371 23.8365 4.80986 23.7262 4.76366 23.6247L2.80605 19.318C2.4235 18.4764 2.22949 17.5809 2.22949 16.6563C2.22949 15.0768 3.51454 13.7917 5.09408 13.7917H7.17741C7.42736 13.7917 7.66225 13.6722 7.80923 13.47C10.5187 9.74456 13.8429 6.57065 17.6895 4.03638L20.1493 2.41576C20.3345 2.29378 20.5497 2.22925 20.7714 2.22925C21.2973 2.22925 21.7495 2.58649 21.8713 3.098L22.0424 3.81644C22.0958 4.04128 22.2462 4.23091 22.453 4.33425L23.6726 4.94404C23.9389 5.07722 24.1044 5.34498 24.1044 5.64284V5.97925H23.3232C22.8917 5.97925 22.5419 6.32904 22.5419 6.7605C22.5419 7.19196 22.8917 7.54175 23.3232 7.54175H24.5621L25.6473 8.62696C25.4979 9.77623 24.5126 10.6667 23.3232 10.6667H21.658Z" fill="#DA3333"/>
</svg>
