<svg width="32" height="32" viewBox="0 0 32 32" fill="none" xmlns="http://www.w3.org/2000/svg">
<path fill-rule="evenodd" clip-rule="evenodd" d="M17.7681 6.25535L11.5496 0L5.25626 6.33074L8.49363 9.58733L0 11.8767L2.30353 20.5246L6.72596 19.3326L4.4501 27.8767L13.047 30.1939L14.232 25.7452L20.4498 32L26.7432 25.6692L23.506 22.4128L32 20.1233L29.6964 11.4754L25.2743 12.6673L27.5502 4.1231L18.9533 1.80589L17.7681 6.25535ZM6.93253 19.2769L15.3505 21.5459L14.2873 25.5376L20.4498 19.3385L23.3553 22.2612L21.0995 13.7926L25.068 12.7229L16.6497 10.4538L17.7132 6.46131L11.5496 12.6615L8.64484 9.73943L10.9004 18.2074L6.93253 19.2769Z" fill="#DA3333"/>
</svg>
