<svg width="28" height="28" viewBox="0 0 28 28" fill="none" xmlns="http://www.w3.org/2000/svg">
<path d="M14.7816 3.11747C14.7816 3.54892 14.4318 3.89871 14.0004 3.89871C13.5689 3.89871 13.2191 3.54892 13.2191 3.11747V1.44388C13.26 0.408096 14.7403 0.407315 14.7816 1.44388V3.11747Z" fill="#DA3333"/>
<path fill-rule="evenodd" clip-rule="evenodd" d="M10.7087 13.9959C10.7087 12.1809 12.1853 10.7043 14.0004 10.7043C15.8154 10.7043 17.292 12.1809 17.2921 13.9959C17.1119 18.3615 10.8895 18.3628 10.7087 13.9959ZM12.2712 13.9959C12.2712 14.9494 13.0469 15.7251 14.0004 15.7251C14.9538 15.7251 15.7295 14.9494 15.7295 13.9959C15.6349 11.7026 12.3662 11.7019 12.2712 13.9959Z" fill="#DA3333"/>
<path fill-rule="evenodd" clip-rule="evenodd" d="M0.734336 13.6786C5.84636 3.08544 22.1113 3.03101 27.2663 13.6786C27.3561 13.8807 27.3561 14.1112 27.2663 14.3133C22.1487 24.9131 5.88797 24.9587 0.734336 14.3133C0.644544 14.1112 0.644544 13.8807 0.734336 13.6786ZM7.48146 8.84418C4.90329 10.2582 3.19589 12.3847 2.32381 13.996C3.19282 15.6016 4.89834 17.731 7.48146 19.1476C5.11037 16.2858 5.10995 11.7066 7.48146 8.84418ZM7.25037 13.9959C7.25037 17.7179 10.2784 20.7459 14.0004 20.7459C17.7223 20.7459 20.7503 17.7179 20.7503 13.996C20.381 5.04377 7.62115 5.04116 7.25037 13.9959ZM20.5192 8.84423C22.8903 11.706 22.8908 16.2853 20.5192 19.1477C23.0974 17.7337 24.8048 15.6071 25.6769 13.9959C24.8078 12.3904 23.1024 10.2609 20.5192 8.84423Z" fill="#DA3333"/>
<path d="M14.0004 24.0932C13.5689 24.0932 13.2191 24.4429 13.2191 24.8744V26.548C13.2604 27.5846 14.7407 27.5838 14.7816 26.548V24.8744C14.7816 24.4429 14.4318 24.0932 14.0004 24.0932Z" fill="#DA3333"/>
<path d="M5.34792 5.34355C5.04277 5.64866 4.54813 5.64861 4.24308 5.34355L3.05985 4.16028C2.7548 3.85517 2.7548 3.36054 3.05985 3.05543C3.36496 2.75033 3.85964 2.75038 4.1647 3.05543L5.34792 4.23871C5.65297 4.54382 5.65297 5.03845 5.34792 5.34355Z" fill="#DA3333"/>
<path d="M4.24308 22.6484L3.05985 23.8316C2.75475 24.1367 2.75475 24.6313 3.05985 24.9364C3.36485 25.2415 3.85959 25.2416 4.16469 24.9364L5.34792 23.7532C5.65302 23.4481 5.65302 22.9535 5.34792 22.6484C5.04287 22.3433 4.54818 22.3433 4.24308 22.6484Z" fill="#DA3333"/>
<path d="M24.9409 4.16033L23.7576 5.34355C23.4529 5.64814 22.9584 5.64907 22.6528 5.3435C22.3477 5.0384 22.3477 4.54376 22.6528 4.23866L23.836 3.05548C24.1411 2.75043 24.6357 2.75038 24.9409 3.05548C25.246 3.36059 25.246 3.85522 24.9409 4.16033Z" fill="#DA3333"/>
<path d="M23.7576 22.6484C23.4526 22.3433 22.9579 22.3433 22.6528 22.6484C22.3477 22.9535 22.3477 23.4481 22.6528 23.7532L23.836 24.9364C24.141 25.2415 24.6357 25.2416 24.9409 24.9364C25.246 24.6313 25.246 24.1367 24.9409 23.8316L23.7576 22.6484Z" fill="#DA3333"/>
</svg>
