<svg width="28" height="28" viewBox="0 0 28 28" fill="none" xmlns="http://www.w3.org/2000/svg">
<path fill-rule="evenodd" clip-rule="evenodd" d="M23.4274 0.666748H26.5524C26.9839 0.666748 27.3337 1.01654 27.3337 1.448V4.573C27.3337 5.00446 26.9839 5.35425 26.5524 5.35425H23.4274C22.996 5.35425 22.6462 5.00446 22.6462 4.573V3.79175H19.3974C22.2104 5.57336 23.9288 8.57571 24.1353 11.7835C25.0556 12.1 25.7191 12.9737 25.7191 14.0001C25.7191 15.2924 24.6677 16.3438 23.3753 16.3438C22.083 16.3438 21.0316 15.2924 21.0316 14.0001C21.0316 12.9907 21.673 12.1283 22.5696 11.7991C22.2922 8.11956 19.6427 4.95045 16.0995 4.05128C15.7154 4.82269 14.919 5.35425 14.0003 5.35425C13.0816 5.35425 12.2852 4.82269 11.9012 4.05123C8.35803 4.95039 5.70845 8.11951 5.43106 11.799C6.32767 12.1283 6.96908 12.9907 6.96908 14.0001C6.96908 15.2924 5.91767 16.3438 4.62533 16.3438C3.33298 16.3438 2.28158 15.2924 2.28158 14.0001C2.28158 12.9737 2.94501 12.1 3.86533 11.7835C4.07142 8.58211 5.78475 5.56644 8.6033 3.78133H5.35449V4.573C5.35449 5.00446 5.0047 5.35425 4.57324 5.35425H1.44824C1.01678 5.35425 0.666992 5.00446 0.666992 4.573V1.448C0.666992 1.01654 1.01678 0.666748 1.44824 0.666748H4.57324C5.0047 0.666748 5.35449 1.01654 5.35449 1.448V2.22925H11.791C12.1135 1.31998 12.9818 0.666748 14.0003 0.666748C15.0188 0.666748 15.8872 1.31998 16.2097 2.22925H22.6462V1.448C22.6462 1.01654 22.996 0.666748 23.4274 0.666748ZM2.22949 3.79175H3.79199V2.22925H2.22949V3.79175ZM3.84408 14.0001C3.84408 14.4309 4.19454 14.7813 4.62533 14.7813C5.05611 14.7813 5.40658 14.4309 5.40658 14.0001C5.40658 13.5693 5.05611 13.2188 4.62533 13.2188C4.19454 13.2188 3.84408 13.5693 3.84408 14.0001ZM13.2191 3.0105C13.2191 3.44128 13.5695 3.79175 14.0003 3.79175C14.4311 3.79175 14.7816 3.44128 14.7816 3.0105C14.7816 2.57972 14.4311 2.22925 14.0003 2.22925C13.5695 2.22925 13.2191 2.57972 13.2191 3.0105ZM24.1566 14.0001C24.1566 13.5693 23.8061 13.2188 23.3753 13.2188C22.9445 13.2188 22.5941 13.5693 22.5941 14.0001C22.5941 14.4309 22.9445 14.7813 23.3753 14.7813C23.8061 14.7813 24.1566 14.4309 24.1566 14.0001ZM24.2087 3.79175H25.7712V2.22925H24.2087V3.79175Z" fill="#DA3333"/>
<path fill-rule="evenodd" clip-rule="evenodd" d="M14.6503 7.31675L20.9003 16.6917C21.1069 17.0015 21.0661 17.4142 20.8027 17.6775C19.244 19.2361 18.2519 21.2736 17.9817 23.4536C18.103 23.5516 18.2201 23.6566 18.3312 23.7703C19.065 24.521 19.4691 25.5089 19.4691 26.5522C19.4691 26.9836 19.1193 27.3334 18.6878 27.3334H9.31283C8.88137 27.3334 8.53158 26.9836 8.53158 26.5522C8.53158 25.5089 8.93569 24.521 9.66949 23.7703C9.78054 23.6567 9.89767 23.5517 10.019 23.4536C9.74871 21.2737 8.75663 19.2362 7.19793 17.6775C6.9346 17.4142 6.89371 17.0016 7.10033 16.6917L13.3503 7.31675L13.358 7.30597C13.6528 6.8793 14.2796 6.8517 14.6089 7.26076C14.6206 7.27539 14.6319 7.29039 14.6427 7.30597L14.6503 7.31675ZM14.7816 17.1251C14.7816 16.6943 14.4311 16.3438 14.0003 16.3438C13.5695 16.3438 13.2191 16.6943 13.2191 17.1251C13.2191 17.5559 13.5695 17.9063 14.0003 17.9063C14.4311 17.9063 14.7816 17.5559 14.7816 17.1251ZM12.4378 24.1563C11.4335 24.1563 10.5524 24.8421 10.2273 25.7709H17.7733C17.4483 24.8421 16.5672 24.1563 15.5628 24.1563H12.4378ZM15.5628 22.5938C15.8873 22.5938 16.2058 22.6343 16.5131 22.7127C16.8787 20.607 17.8282 18.6386 19.2553 17.041L14.7816 10.3304V14.9158C15.6909 15.2383 16.3441 16.1066 16.3441 17.1251C16.3441 18.4175 15.2927 19.4689 14.0003 19.4689C12.708 19.4689 11.6566 18.4175 11.6566 17.1251C11.6566 16.1066 12.3098 15.2383 13.2191 14.9158V10.3304L8.74538 17.041C10.1724 18.6388 11.1219 20.6071 11.4876 22.7128C11.7949 22.6343 12.1134 22.5938 12.4378 22.5938H15.5628Z" fill="#DA3333"/>
</svg>
