<svg width="24" height="28" viewBox="0 0 24 28" fill="none" xmlns="http://www.w3.org/2000/svg">
<path d="M7.03125 11.6563C6.59979 11.6563 6.25 12.0061 6.25 12.4376C6.25 12.869 6.59979 13.2188 7.03125 13.2188H13.2813C13.7127 13.2188 14.0625 12.869 14.0625 12.4376C14.0625 12.0061 13.7127 11.6563 13.2813 11.6563H7.03125Z" fill="#DA3333"/>
<path d="M3.90625 14.7813H13.2813C13.7127 14.7813 14.0625 15.1311 14.0625 15.5626C14.0625 15.994 13.7127 16.3438 13.2813 16.3438H3.90625C3.47479 16.3438 3.125 15.994 3.125 15.5626C3.125 15.1311 3.47479 14.7813 3.90625 14.7813Z" fill="#DA3333"/>
<path d="M13.2813 17.9063H3.90625C3.47479 17.9063 3.125 18.2561 3.125 18.6876C3.125 19.119 3.47479 19.4688 3.90625 19.4688H13.2813C13.7127 19.4688 14.0625 19.119 14.0625 18.6876C14.0625 18.2561 13.7127 17.9063 13.2813 17.9063Z" fill="#DA3333"/>
<path d="M3.90625 21.0313H10.1563C10.5877 21.0313 10.9375 21.3811 10.9375 21.8126C10.9375 22.244 10.5877 22.5938 10.1563 22.5938H3.90625C3.47479 22.5938 3.125 22.244 3.125 21.8126C3.125 21.3811 3.47479 21.0313 3.90625 21.0313Z" fill="#DA3333"/>
<path fill-rule="evenodd" clip-rule="evenodd" d="M0.78125 27.3334C0.349792 27.3334 0 26.9836 0 26.5522V3.0105C0 2.57904 0.349792 2.22925 0.78125 2.22925H3.125V1.448C3.125 1.01654 3.47479 0.666748 3.90625 0.666748C4.33771 0.666748 4.6875 1.01654 4.6875 1.448V2.22925H6.25V1.448C6.25 1.01654 6.59979 0.666748 7.03125 0.666748C7.46271 0.666748 7.8125 1.01654 7.8125 1.448V2.22925H9.375V1.448C9.375 1.01654 9.72479 0.666748 10.1563 0.666748C10.5877 0.666748 10.9375 1.01654 10.9375 1.448V2.22925H12.5V1.448C12.5 1.01654 12.8498 0.666748 13.2813 0.666748C13.7127 0.666748 14.0625 1.01654 14.0625 1.448V2.22925H16.4063C16.8377 2.22925 17.1875 2.57904 17.1875 3.0105V26.5522C17.1875 26.9836 16.8377 27.3334 16.4063 27.3334H0.78125ZM1.5625 8.47925V25.7709H15.625V8.47925H1.5625ZM3.125 4.573V3.79175H1.5625V6.91675H15.625V3.79175H14.0625V4.573C14.0625 5.00446 13.7127 5.35425 13.2813 5.35425C12.8498 5.35425 12.5 5.00446 12.5 4.573V3.79175H10.9375V4.573C10.9375 5.00446 10.5877 5.35425 10.1563 5.35425C9.72479 5.35425 9.375 5.00446 9.375 4.573V3.79175H7.8125V4.573C7.8125 5.00446 7.46271 5.35425 7.03125 5.35425C6.59979 5.35425 6.25 5.00446 6.25 4.573V3.79175H4.6875V4.573C4.6875 5.00446 4.33771 5.35425 3.90625 5.35425C3.47479 5.35425 3.125 5.00446 3.125 4.573Z" fill="#DA3333"/>
<path fill-rule="evenodd" clip-rule="evenodd" d="M18.7893 22.0572C18.7672 21.9911 18.75 21.8963 18.75 21.8126V7.75008C18.75 6.45774 19.8014 5.40633 21.0938 5.40633C22.3861 5.40633 23.4375 6.45774 23.4375 7.75008V21.8126C23.4375 21.8954 23.4211 21.9884 23.3982 22.0572L21.8357 26.7967C21.7302 27.1171 21.431 27.3334 21.0938 27.3334C20.7565 27.3334 20.4573 27.1171 20.3518 26.7967L18.7893 22.0572ZM21.576 22.5938H20.6114L21.0938 24.0569L21.576 22.5938ZM20.3125 10.0938V21.0313H21.875V10.0938H20.3125ZM21.875 8.53133V7.75008C21.875 7.3193 21.5245 6.96883 21.0938 6.96883C20.663 6.96883 20.3125 7.3193 20.3125 7.75008V8.53133H21.875Z" fill="#DA3333"/>
</svg>
