<svg width="28" height="22" viewBox="0 0 28 22" fill="none" xmlns="http://www.w3.org/2000/svg">
<path d="M1.96176 16.6077C2.16073 16.7072 2.37496 16.7759 2.59591 16.8144L2.25167 17.3059C2.18209 17.4054 2.13672 17.5195 2.11882 17.6394L1.60633 21.0956C1.56299 21.3884 1.68852 21.6805 1.93103 21.8502C2.17375 22.0201 2.49113 22.038 2.75114 21.8972L5.64563 20.3298C6.04541 21.0521 6.81527 21.5424 7.69764 21.5424C8.29741 21.5424 8.8453 21.3159 9.26013 20.9442C9.67517 21.3159 10.2231 21.5424 10.8226 21.5424C12.1152 21.5424 13.1666 20.4909 13.1666 19.1986V18.8996C14.6198 19.6067 16.2381 19.9799 17.8541 19.9799C19.5234 19.9799 21.1789 19.597 22.646 18.8733V20.7611C22.646 21.0319 22.7861 21.2834 23.0164 21.4258C23.2463 21.5678 23.534 21.5812 23.7765 21.46L26.9017 19.8975C27.1664 19.765 27.3337 19.4946 27.3337 19.1986V9.82342C27.3337 9.3919 26.9837 9.04217 26.5524 9.04217C25.3079 9.04217 22.2887 9.04217 21.1602 9.04217L15.6489 6.34544L17.7428 3.35512C17.99 3.00193 17.9043 2.51447 17.5507 2.26707L14.9909 0.474467C14.6377 0.227275 14.1503 0.312928 13.9029 0.666321C13.5721 1.13873 11.4611 4.15367 11.1325 4.62282C10.4916 4.28611 9.72319 4.28774 9.23572 4.49933L6.2629 5.79083C5.83199 5.97821 5.47087 6.28664 5.219 6.68317L0.953048 13.393C0.675948 13.829 0.561202 14.577 0.786218 15.2523C0.984176 15.8462 1.40166 16.3275 1.96176 16.6077V16.6077ZM3.38123 19.7793L3.63758 18.0512L4.33623 17.0532C4.63571 17.4905 5.04322 17.8475 5.5201 18.0868L4.91748 18.9474L3.38123 19.7793ZM7.69764 19.9801C7.26693 19.9801 6.91639 19.6295 6.91639 19.1986V18.8167L7.19613 18.4174H8.47889V19.1986C8.47889 19.6295 8.12854 19.9801 7.69764 19.9801V19.9801ZM10.8228 19.9801C10.3919 19.9801 10.0416 19.6295 10.0416 19.1986V18.4174H11.6041V19.1986C11.6041 19.6295 11.2535 19.9801 10.8228 19.9801V19.9801ZM25.7712 18.7158L24.2085 19.4971V10.6047H25.7712V18.7158ZM20.6359 10.5251C20.7429 10.5774 20.8603 10.6047 20.9793 10.6047H22.646V17.1428C22.1194 17.3474 20.4845 18.4174 17.8543 18.4174C15.066 18.4174 13.3487 17.1824 12.7347 16.9373C12.6232 16.8815 12.5003 16.8549 12.3853 16.8549H6.91639C6.11744 16.8549 5.45704 16.2521 5.36528 15.4773C5.38969 15.364 5.38746 15.2476 5.36162 15.1363C5.44015 14.3478 6.10747 13.7299 6.91639 13.7299H11.7382C13.3717 13.7299 14.9077 13.0937 16.0629 11.9385C16.3679 11.6333 16.3679 11.1387 16.0629 10.8336C15.7577 10.5284 15.2631 10.5284 14.958 10.8336C14.0978 11.6935 12.9544 12.1674 11.7382 12.1674H11.5726L14.7415 7.64142L20.6359 10.5251ZM12.9422 4.76259L14.2221 5.659L9.665 12.1674H7.75745C8.42172 11.2187 12.3328 5.63295 12.9422 4.76259V4.76259ZM14.7346 2.20278L16.0147 3.09898L15.1183 4.37909L13.8384 3.48269L14.7346 2.20278ZM2.29684 14.1917L6.53756 7.52158C6.62159 7.38934 6.74203 7.2866 6.88566 7.22414L9.82125 5.94871C9.95166 5.91046 10.0861 5.90782 10.2131 5.9361L5.66679 12.4288C4.7059 12.8497 3.99585 13.74 3.82902 14.8086C3.6862 15.2098 3.06547 15.4124 2.66061 15.21C2.27955 15.0195 2.12818 14.5673 2.29684 14.1917Z" fill="#DA3333"/>
</svg>
