<svg width="28" height="28" viewBox="0 0 28 28" fill="none" xmlns="http://www.w3.org/2000/svg">
<path fill-rule="evenodd" clip-rule="evenodd" d="M13.4462 9.62071C14.8081 8.25873 17.0179 8.25884 18.3798 9.62071C19.7399 10.9809 19.7399 13.1941 18.3798 14.5543C17.0195 15.9145 14.8063 15.9145 13.4462 14.5543C12.086 13.1941 12.086 10.9809 13.4462 9.62071ZM14.6795 13.3209C15.3597 14.0009 16.4663 14.0009 17.1464 13.3209C17.8264 12.6408 17.8264 11.5342 17.1463 10.854C16.4661 10.1738 15.3597 10.1738 14.6795 10.854C13.9994 11.5342 13.9994 12.6408 14.6795 13.3209Z" fill="#DA3333"/>
<path fill-rule="evenodd" clip-rule="evenodd" d="M24.4752 0.674765C25.2485 0.614661 26.0076 0.894609 26.5567 1.44372C27.1057 1.99279 27.3861 2.75154 27.3256 3.52534C27.1577 5.67602 26.6525 7.78706 25.8239 9.79988C25.0402 11.7037 23.9537 13.5526 22.5431 15.2577C21.6947 16.2833 20.764 17.2167 19.763 18.0522C19.5927 20.646 18.4544 23.1132 16.5295 25.0381C15.6189 25.9487 14.5639 26.6926 13.3938 27.2489C13.0604 27.4073 12.6636 27.3389 12.4026 27.078C12.1417 26.817 12.0732 26.4201 12.2317 26.0868C12.8807 24.7215 13.1736 23.2307 13.086 21.796C12.7819 21.8989 12.4751 21.9952 12.1653 22.0842L10.4937 24.8701C10.2006 25.3586 9.52859 25.4374 9.12922 25.0381L7.8426 23.7515C7.3127 24.1565 6.58968 24.6506 5.86666 25.0699C5.22296 25.4433 4.66182 25.7104 4.19885 25.8637C3.54301 26.0809 2.8303 26.1395 2.34556 25.6547C1.93551 25.2447 1.8652 24.6211 2.13661 23.8015C2.28994 23.3384 2.55697 22.7773 2.93036 22.1336C3.34978 21.4106 3.8439 20.6875 4.2489 20.1577L2.96228 18.8711C2.56181 18.4706 2.64359 17.7985 3.13025 17.5066L5.91614 15.835C6.00526 15.5252 6.10151 15.2184 6.20432 14.9144C4.76958 14.8267 3.27885 15.1195 1.91358 15.7687C1.794 15.8256 1.66614 15.8532 1.53931 15.8532C1.31286 15.8532 1.08973 15.765 0.922438 15.5977C0.6615 15.3369 0.593063 14.9399 0.7515 14.6066C1.30786 13.4365 2.05166 12.3815 2.96234 11.4709C4.88723 9.54592 7.35437 8.40774 9.94818 8.23743C10.7838 7.23639 11.7171 6.3056 12.7427 5.45727C14.4479 4.0467 16.2969 2.96008 18.2006 2.17649C20.2134 1.34794 22.3245 0.842682 24.4752 0.674765ZM4.19577 12.7042C3.98077 12.9192 3.77687 13.1436 3.58426 13.3771C4.67296 13.1493 5.7826 13.0956 6.85968 13.2225C7.31593 12.1815 7.85573 11.1819 8.47453 10.2312C6.89369 10.636 5.41781 11.4822 4.19577 12.7042ZM3.87525 24.1252C4.19031 23.9987 4.65791 23.7713 5.32416 23.3625C5.80125 23.0699 6.24677 22.7642 6.59723 22.5059L5.49453 21.4032C5.23624 21.7537 4.93062 22.1992 4.63791 22.6763C4.22916 23.3426 4.00171 23.8102 3.87525 24.1252ZM4.98567 18.4276L9.57286 23.0148L10.4979 21.4731L6.52739 17.5025L4.98567 18.4276ZM14.7779 21.1408C14.9049 22.2177 14.8512 23.3274 14.6233 24.4161C16.1392 23.1659 17.2775 21.4461 17.7692 19.5259C16.8185 20.1447 15.8189 20.6845 14.7779 21.1408ZM7.64114 16.1496L11.8509 20.3593C16.6565 18.93 20.6054 15.7176 23.0263 11.5679L16.4325 4.97404C12.1806 7.45467 9.03786 11.4534 7.64114 16.1496ZM23.8718 9.9467C24.8114 7.91592 25.4061 5.70316 25.5867 3.38951C25.6077 3.12091 25.5141 2.86794 25.3233 2.67711C25.1325 2.48633 24.8795 2.39263 24.6109 2.41378C22.2973 2.5944 20.0845 3.18909 18.0538 4.12862L23.8718 9.9467Z" fill="#DA3333"/>
</svg>
